<svg width="39" height="32" viewBox="0 0 39 32" fill="none" xmlns="http://www.w3.org/2000/svg">
<path d="M38.315 3H-0.315036C-0.4967 3 -0.670923 3.07325 -0.799379 3.20362C-0.927834 3.334 -1 3.51084 -1 3.69522V28.3048C-1 28.4892 -0.927834 28.666 -0.799379 28.7964C-0.670923 28.9268 -0.4967 29 -0.315036 29H38.315C38.4967 29 38.6709 28.9268 38.7994 28.7964C38.9278 28.666 39 28.4892 39 28.3048V3.69522C39 3.51084 38.9278 3.334 38.7994 3.20362C38.6709 3.07325 38.4967 3 38.315 3ZM31.5774 18.0331C31.6846 18.5259 31.7954 19.0355 31.6513 19.2882C31.4966 19.5596 30.9966 19.7173 30.5131 19.8699C30.1316 19.9902 29.7373 20.1147 29.3857 20.3212C29.0461 20.5206 28.7523 20.8001 28.4683 21.0704C28.0772 21.4426 27.7079 21.794 27.374 21.794C27.04 21.794 26.6706 21.4425 26.2797 21.0704C25.9956 20.8001 25.7018 20.5205 25.3622 20.3212C25.0107 20.1147 24.6163 19.9903 24.2348 19.8699C23.7513 19.7173 23.2513 19.5596 23.0967 19.2882C22.9526 19.0355 23.0633 18.5259 23.1705 18.0331C23.2584 17.6285 23.3493 17.2103 23.3493 16.7821C23.3493 16.354 23.2584 15.9356 23.1705 15.5311C23.0633 15.0383 22.9526 14.5288 23.0967 14.2759C23.2513 14.0046 23.7513 13.8468 24.2348 13.6942C24.6163 13.5739 25.0107 13.4494 25.3622 13.243C25.7018 13.0435 25.9956 12.764 26.2797 12.4937C26.6706 12.1216 27.04 11.7701 27.374 11.7701C27.7079 11.7701 28.0773 12.1216 28.4683 12.4937C28.7523 12.764 29.0461 13.0435 29.3857 13.243C29.7373 13.4493 30.1316 13.5738 30.5131 13.6941C30.9966 13.8467 31.4966 14.0045 31.6512 14.2758C31.7954 14.5286 31.6846 15.0381 31.5774 15.5309C31.4895 15.9354 31.3986 16.3537 31.3986 16.7819C31.3986 17.2102 31.4895 17.6286 31.5774 18.0331ZM29.5975 11.6608C29.5345 11.6024 29.4705 11.5416 29.4053 11.4795C28.8904 10.9896 28.2497 10.3798 27.374 10.3798C26.4982 10.3798 25.8574 10.9896 25.3426 11.4795C25.1045 11.7061 24.8796 11.9201 24.6761 12.0396C24.4574 12.168 24.1518 12.2645 23.8281 12.3666C23.1275 12.5876 22.3336 12.8381 21.9109 13.5797C21.5001 14.3004 21.6768 15.1134 21.8328 15.8307C21.9081 16.1777 21.9794 16.5055 21.9794 16.7821C21.9794 17.0587 21.9081 17.3866 21.8328 17.7336C21.6975 18.3556 21.5473 19.0496 21.7775 19.693L18.9997 22.5464L1.32449 4.39044H36.6748L29.5975 11.6608ZM10.7007 16L0.369929 26.6116V5.38812L10.7007 16ZM11.6635 16.989L18.5124 24.0242C18.5761 24.0896 18.6519 24.1416 18.7356 24.177C18.8192 24.2125 18.9089 24.2308 18.9996 24.2308C19.0902 24.2308 19.18 24.2125 19.2636 24.177C19.3472 24.1416 19.4231 24.0896 19.4868 24.0242L22.6841 20.7398C23.044 20.9494 23.4495 21.0781 23.8281 21.1976C24.1518 21.2998 24.4575 21.3962 24.6761 21.5245C24.8796 21.644 25.1044 21.8581 25.3426 22.0846C25.8574 22.5746 26.4982 23.1844 27.374 23.1844C28.2496 23.1844 28.8904 22.5746 29.4053 22.0846C29.6434 21.858 29.8682 21.644 30.0718 21.5244C30.2043 21.4466 30.3691 21.3806 30.5502 21.3179L36.675 27.6094H1.32431L11.6635 16.989ZM31.9664 20.7946C32.3117 20.6108 32.6223 20.3612 32.8371 19.9846C33.2479 19.2639 33.0711 18.4508 32.9151 17.7336C32.8398 17.3866 32.7686 17.0587 32.7686 16.7821C32.7686 16.5055 32.8398 16.1777 32.9151 15.8307C33.0711 15.1134 33.2479 14.3005 32.837 13.5797C32.4142 12.8381 31.6203 12.5876 30.9197 12.3666L30.8559 12.3463L37.6301 5.38738V26.6122L31.9664 20.7946Z" fill="#F1CDB3"/>
<path d="M27.374 13.2424C25.451 13.2424 23.8865 14.8302 23.8865 16.782C23.8865 18.7337 25.451 20.3215 27.374 20.3215C29.297 20.3215 30.8614 18.7337 30.8614 16.782C30.8614 14.8302 29.2969 13.2424 27.374 13.2424ZM27.374 18.9311C26.2064 18.9311 25.2564 17.967 25.2564 16.782C25.2564 15.5969 26.2063 14.6328 27.374 14.6328C28.5416 14.6328 29.4915 15.5969 29.4915 16.782C29.4915 17.967 28.5415 18.9311 27.374 18.9311Z" fill="#F1CDB3"/>
</svg>
