<svg width="39" height="32" viewBox="0 0 39 32" fill="none" xmlns="http://www.w3.org/2000/svg">
<path d="M38.9461 8.89543L36.5102 2.9049C36.4685 2.80251 36.4043 2.71139 36.3226 2.63868C36.2408 2.56598 36.1437 2.51367 36.0389 2.48585L33.111 1.70799C24.5388 -0.569376 13.4609 -0.569281 4.88906 1.70799L1.96105 2.48585C1.85626 2.51367 1.75918 2.56598 1.67743 2.63868C1.59568 2.71139 1.53147 2.80251 1.48984 2.9049L-0.946024 8.89543C-1.01313 9.06038 -1.01783 9.24503 -0.959204 9.41333L0.0150862 12.2089C0.0716579 12.3713 0.183391 12.5075 0.329862 12.5925C0.476333 12.6775 0.647758 12.7056 0.812802 12.6717L10.0692 10.7747C10.2084 10.7462 10.3359 10.675 10.4348 10.5706C10.5337 10.4661 10.5993 10.3334 10.623 10.19L11.4245 5.32594C15.8365 4.18994 22.1635 4.18994 26.5753 5.32594L27.3769 10.19C27.4006 10.3335 27.4662 10.4663 27.5651 10.5707C27.664 10.6751 27.7915 10.7463 27.9307 10.7748L37.187 12.6718C37.3521 12.7056 37.5234 12.6774 37.6699 12.5924C37.8164 12.5075 37.9281 12.3714 37.9848 12.209L38.9592 9.41343C39.0178 9.2451 39.0131 9.06043 38.9461 8.89543ZM1.13193 11.1412L0.631834 9.70624L9.5973 7.78606L9.32099 9.46295L1.13193 11.1412ZM10.6222 4.0568C10.4935 4.09314 10.3777 4.16636 10.2883 4.26784C10.1989 4.36933 10.1396 4.49486 10.1174 4.62969L9.848 6.26453L0.859913 8.1896L2.65015 3.78707L5.2409 3.09877C13.5991 0.878304 24.4007 0.878208 32.7593 3.09877L35.35 3.78707L37.1403 8.1896L28.1522 6.26453L27.8828 4.62969C27.8606 4.49487 27.8013 4.36936 27.7119 4.26788C27.6224 4.1664 27.5066 4.09318 27.378 4.0568C22.6016 2.70615 15.3984 2.70615 10.6222 4.0568ZM36.8681 11.1412L28.6792 9.46295L28.4028 7.78606L37.3682 9.70624L36.8681 11.1412Z" fill="#F1CDB3"/>
<path d="M32.2901 13.1186C32.261 12.9842 32.1948 12.8612 32.0995 12.7643C32.0041 12.6673 31.8836 12.6005 31.7522 12.5717L26.9776 11.526L26.3764 7.51395C26.351 7.34431 26.2672 7.18959 26.1401 7.07781C26.013 6.96603 25.851 6.90458 25.6835 6.90458H23.814V5.96398C23.814 5.56724 23.5002 5.2456 23.1129 5.2456C22.7257 5.2456 22.4119 5.56724 22.4119 5.96398V6.90458H15.5882V5.96398C15.5882 5.56724 15.2744 5.2456 14.8871 5.2456C14.4999 5.2456 14.1861 5.56724 14.1861 5.96398V6.90458H12.3166C12.1491 6.90458 11.9871 6.96603 11.86 7.07781C11.7329 7.18959 11.6491 7.34431 11.6237 7.51395L11.0224 11.526L6.24791 12.5717C6.11654 12.6005 5.996 12.6673 5.90063 12.7643C5.80527 12.8612 5.73908 12.9842 5.70996 13.1186L2.46796 28.0878C2.45692 28.1389 2.45134 28.1911 2.45132 28.2434V31.2816C2.45132 31.4721 2.52519 31.6549 2.65666 31.7896C2.78814 31.9243 2.96645 32 3.15239 32H34.8477C35.0336 32 35.212 31.9243 35.3434 31.7896C35.4749 31.6549 35.5488 31.4721 35.5488 31.2816V28.2434C35.5488 28.1911 35.5432 28.1389 35.5321 28.0878L32.2901 13.1186ZM6.98131 13.8802L11.7885 12.8273C11.9276 12.7968 12.0544 12.7238 12.152 12.6178C12.2496 12.5118 12.3134 12.3779 12.335 12.2338L12.9183 8.34134H25.0819L25.6651 12.2338C25.6867 12.3779 25.7505 12.5118 25.8481 12.6178C25.9457 12.7238 26.0725 12.7968 26.2115 12.8273L31.0189 13.8802L33.9741 27.5251H4.0261L6.98131 13.8802ZM10.7966 28.9618L9.89352 30.5632H8.82782L9.73088 28.9618H10.7966ZM12.416 28.9618H27.6721L26.769 30.5632H11.513L12.416 28.9618ZM3.85345 28.9618H8.11142L7.20836 30.5632H3.85345V28.9618ZM28.3885 30.5632L29.2916 28.9618H34.1466V30.5632H28.3885Z" fill="#F1CDB3"/>
<path d="M19 26.1606C23.1492 26.1606 26.5248 22.7016 26.5248 18.45C26.5248 14.1983 23.1492 10.7393 19 10.7393C14.8509 10.7393 11.4753 14.1983 11.4753 18.45C11.4753 22.7016 14.8509 26.1606 19 26.1606ZM19 12.1761C22.3761 12.1761 25.1227 14.9905 25.1227 18.45C25.1227 21.9094 22.3761 24.7238 19 24.7238C15.624 24.7238 12.8774 21.9094 12.8774 18.45C12.8774 14.9905 15.624 12.1761 19 12.1761Z" fill="#F1CDB3"/>
<path d="M19 21.1847C20.4717 21.1847 21.6691 19.9578 21.6691 18.4497C21.6691 16.9416 20.4717 15.7147 19 15.7147C17.5283 15.7147 16.3309 16.9416 16.3309 18.4497C16.3309 19.9578 17.5283 21.1847 19 21.1847ZM19 17.1514C19.6987 17.1514 20.267 17.7338 20.267 18.4497C20.267 19.1656 19.6987 19.7479 19 19.7479C18.3014 19.7479 17.733 19.1656 17.733 18.4497C17.733 17.7339 18.3014 17.1514 19 17.1514Z" fill="#F1CDB3"/>
</svg>
